<svg width="20" height="20" viewBox="0 0 20 20" fill="none" xmlns="http://www.w3.org/2000/svg">
<g id="vuesax/bold/arrow-circle-down">
<g id="arrow-circle-down">
<path id="Vector" d="M9.99984 1.66669C5.40817 1.66669 1.6665 5.40835 1.6665 10C1.6665 14.5917 5.40817 18.3334 9.99984 18.3334C14.5915 18.3334 18.3332 14.5917 18.3332 10C18.3332 5.40835 14.5915 1.66669 9.99984 1.66669ZM13.3832 9.39169L10.4415 12.3334C10.3165 12.4584 10.1582 12.5167 9.99984 12.5167C9.8415 12.5167 9.68317 12.4584 9.55817 12.3334L6.6165 9.39169C6.37484 9.15002 6.37484 8.75002 6.6165 8.50835C6.85817 8.26669 7.25817 8.26669 7.49984 8.50835L9.99984 11.0084L12.4998 8.50835C12.7415 8.26669 13.1415 8.26669 13.3832 8.50835C13.6248 8.75002 13.6248 9.14169 13.3832 9.39169Z" fill="white"/>
</g>
</g>
</svg>
