<svg width="32" height="32" viewBox="0 0 32 32" fill="none" xmlns="http://www.w3.org/2000/svg">
<path d="M13.3514 1.18382C14.7643 -0.394606 17.2357 -0.394606 18.6486 1.18382L19.8943 2.57518C20.6143 3.37961 21.6611 3.81316 22.7391 3.75356L24.6037 3.65048C26.7189 3.53354 28.4664 5.28098 28.3494 7.39626L28.2465 9.26086C28.1868 10.3389 28.6203 11.3856 29.4248 12.1058L30.8162 13.3514C32.3946 14.7643 32.3946 17.2357 30.8162 18.6486L29.4248 19.8943C28.6203 20.6143 28.1868 21.6611 28.2465 22.7391L28.3494 24.6037C28.4664 26.7189 26.7189 28.4664 24.6037 28.3494L22.7391 28.2465C21.6611 28.1868 20.6143 28.6203 19.8943 29.4248L18.6486 30.8162C17.2357 32.3946 14.7643 32.3946 13.3514 30.8162L12.1058 29.4248C11.3856 28.6203 10.3389 28.1868 9.26086 28.2465L7.39626 28.3494C5.28098 28.4664 3.53354 26.7189 3.65048 24.6037L3.75356 22.7391C3.81316 21.6611 3.37961 20.6143 2.57518 19.8943L1.18382 18.6486C-0.394606 17.2357 -0.394606 14.7643 1.18382 13.3514L2.57518 12.1058C3.37961 11.3856 3.81316 10.3389 3.75356 9.26086L3.65048 7.39626C3.53354 5.28098 5.28098 3.53354 7.39626 3.65048L9.26086 3.75356C10.3389 3.81316 11.3856 3.37961 12.1058 2.57518L13.3514 1.18382Z" fill="#FF4B4B"/>
<path fill-rule="evenodd" clip-rule="evenodd" d="M8.89111 11.5562C8.89111 10.0837 10.0848 8.89001 11.5573 8.89001H11.5751C13.0476 8.89001 14.2413 10.0837 14.2413 11.5562V11.574C14.2413 13.0465 13.0476 14.2402 11.5751 14.2402H11.5573C10.0848 14.2402 8.89111 13.0465 8.89111 11.574V11.5562Z" fill="#FFB2B2"/>
<path fill-rule="evenodd" clip-rule="evenodd" d="M17.7783 20.4436C17.7783 18.9711 18.972 17.7774 20.4445 17.7774H20.4623C21.9348 17.7774 23.1285 18.9711 23.1285 20.4436V20.4614C23.1285 21.9339 21.9348 23.1276 20.4623 23.1276H20.4445C18.972 23.1276 17.7783 21.9339 17.7783 20.4614V20.4436Z" fill="#FFB2B2"/>
<path fill-rule="evenodd" clip-rule="evenodd" d="M22.5904 9.41063C23.2845 10.1048 23.2845 11.2302 22.5904 11.9244L11.9255 22.5893C11.2313 23.2834 10.1059 23.2834 9.41173 22.5893C8.71758 21.8951 8.71758 20.7697 9.41173 20.0755L20.0766 9.41063C20.7708 8.71648 21.8962 8.71648 22.5904 9.41063Z" fill="#EBE3E3"/>
</svg>
