<svg width="32" height="32" viewBox="0 0 32 32" fill="none" xmlns="http://www.w3.org/2000/svg">
<g id="vuesax/bold/message-edit">
<g id="message-edit">
<path id="Vector" d="M21.3327 2.66669H10.666C5.33268 2.66669 2.66602 5.33335 2.66602 10.6667V28C2.66602 28.7334 3.26602 29.3334 3.99935 29.3334H21.3327C26.666 29.3334 29.3327 26.6667 29.3327 21.3334V10.6667C29.3327 5.33335 26.666 2.66669 21.3327 2.66669ZM14.8127 22.2134C14.4793 22.5467 13.866 22.8534 13.4127 22.92L10.6393 23.3067C10.5327 23.32 10.426 23.3334 10.3327 23.3334C9.86602 23.3334 9.43935 23.1734 9.13268 22.8667C8.75935 22.4934 8.59935 21.9467 8.69268 21.36L9.07935 18.5867C9.14602 18.1334 9.45268 17.5067 9.78602 17.1867L14.8127 12.16C14.8927 12.4 14.9993 12.64 15.1193 12.9067C15.2393 13.1467 15.3593 13.3867 15.4927 13.6134C15.5993 13.8 15.7193 13.9867 15.826 14.12C15.9593 14.32 16.0927 14.4934 16.186 14.5867C16.2393 14.6667 16.2927 14.72 16.306 14.7467C16.5993 15.08 16.906 15.4 17.1993 15.64C17.2793 15.72 17.3327 15.76 17.346 15.7734C17.5194 15.9067 17.6793 16.0534 17.8393 16.1467C18.0127 16.28 18.1993 16.4 18.386 16.5067C18.6127 16.64 18.8527 16.7734 19.106 16.8934C19.3594 17.0134 19.5993 17.1067 19.8393 17.1867L14.8127 22.2134ZM22.066 14.9734L21.026 16.0134C20.9594 16.08 20.866 16.12 20.7727 16.12C20.746 16.12 20.6927 16.12 20.666 16.1067C18.3727 15.4534 16.546 13.6267 15.8927 11.3334C15.8527 11.2134 15.8927 11.08 15.986 10.9867L17.0393 9.93335C18.7593 8.21335 20.386 8.25335 22.066 9.93335C22.9193 10.7867 23.346 11.6134 23.3327 12.4667C23.3327 13.3067 22.9193 14.12 22.066 14.9734Z" fill="#FF4F1A"/>
</g>
</g>
</svg>
