<svg width="32" height="26" viewBox="0 0 32 26" fill="none" xmlns="http://www.w3.org/2000/svg">
<g id="&#240;&#159;&#166;&#134; icon &#34;ticket percent&#34;">
<path id="Vector" d="M3.2 0.0476074C2.35131 0.0476074 1.53737 0.384749 0.937258 0.984865C0.337142 1.58498 0 2.39891 0 3.24761V9.64761C1.776 9.64761 3.2 11.0876 3.2 12.8476C3.2 13.6963 2.86286 14.5102 2.26274 15.1103C1.66263 15.7105 0.848693 16.0476 0 16.0476V22.4476C0 23.2963 0.337142 24.1102 0.937258 24.7103C1.53737 25.3105 2.35131 25.6476 3.2 25.6476H28.8C29.6487 25.6476 30.4626 25.3105 31.0627 24.7103C31.6629 24.1102 32 23.2963 32 22.4476V16.0476C31.1513 16.0476 30.3374 15.7105 29.7373 15.1103C29.1371 14.5102 28.8 13.6963 28.8 12.8476C28.8 11.0716 30.24 9.64761 32 9.64761V3.24761C32 1.47161 30.56 0.0476074 28.8 0.0476074H3.2ZM21.6 4.84761L24 7.24761L10.4 20.8476L8 18.4476L21.6 4.84761ZM10.896 4.91161C12.464 4.91161 13.728 6.17561 13.728 7.74361C13.728 8.4947 13.4296 9.21503 12.8985 9.74613C12.3674 10.2772 11.6471 10.5756 10.896 10.5756C9.328 10.5756 8.064 9.31161 8.064 7.74361C8.064 6.99251 8.36237 6.27218 8.89347 5.74108C9.42458 5.20998 10.1449 4.91161 10.896 4.91161ZM21.104 15.1196C22.672 15.1196 23.936 16.3836 23.936 17.9516C23.936 18.7027 23.6376 19.423 23.1065 19.9541C22.5754 20.4852 21.8551 20.7836 21.104 20.7836C19.536 20.7836 18.272 19.5196 18.272 17.9516C18.272 17.2005 18.5704 16.4802 19.1015 15.9491C19.6326 15.418 20.3529 15.1196 21.104 15.1196Z" fill="#F2A30C"/>
</g>
</svg>
