<svg width="32" height="32" viewBox="0 0 32 32" fill="none" xmlns="http://www.w3.org/2000/svg">
<g id="Component 2">
<rect id="Rectangle 82" width="32" height="32" rx="4" fill="#F5B53D"/>
<path id="&#226;&#130;&#185;" d="M9.93714 18.7657V15.7943H14.1886C15.4838 15.7943 16.4057 15.5276 16.9543 14.9943C17.5029 14.4457 17.7771 13.7829 17.7771 13.0057C17.7771 12.0762 17.48 11.3219 16.8857 10.7429C16.2914 10.1638 15.3467 9.8819 14.0514 9.89714H9V8H23.4457V9.89714H17.9371L18.7143 8.86857C19.6895 9.31048 20.3981 9.93524 20.84 10.7429C21.2819 11.5505 21.5029 12.419 21.5029 13.3486C21.5029 14.4914 21.221 15.4667 20.6571 16.2743C20.1086 17.0819 19.3162 17.699 18.28 18.1257C17.2438 18.5524 16.0095 18.7657 14.5771 18.7657H9.93714ZM17.8229 24L13.6629 17.5771H17.6171L21.8229 24H17.8229ZM9 13.0514V11.1543H23.4457V13.0514H9Z" fill="#28292C"/>
</g>
</svg>
