<svg width="12" height="86" viewBox="0 0 12 86" fill="none" xmlns="http://www.w3.org/2000/svg">
<path id="Vector 71" d="M3.33333 5.5C3.33333 6.97276 4.52724 8.16667 6 8.16667C7.47276 8.16667 8.66667 6.97276 8.66667 5.5C8.66667 4.02724 7.47276 2.83333 6 2.83333C4.52724 2.83333 3.33333 4.02724 3.33333 5.5ZM3.33333 80.5C3.33333 81.9728 4.52724 83.1667 6 83.1667C7.47276 83.1667 8.66667 81.9728 8.66667 80.5C8.66667 79.0272 7.47276 77.8333 6 77.8333C4.52724 77.8333 3.33333 79.0272 3.33333 80.5ZM5.5 5.5V10.1875H6.5V5.5H5.5ZM5.5 19.5625V28.9375H6.5V19.5625H5.5ZM5.5 38.3125V47.6875H6.5V38.3125H5.5ZM5.5 57.0625V66.4375H6.5V57.0625H5.5ZM5.5 75.8125V80.5H6.5V75.8125H5.5ZM0.666667 5.5C0.666667 8.44552 3.05448 10.8333 6 10.8333C8.94552 10.8333 11.3333 8.44552 11.3333 5.5C11.3333 2.55448 8.94552 0.166667 6 0.166667C3.05448 0.166667 0.666667 2.55448 0.666667 5.5ZM0.666667 80.5C0.666667 83.4455 3.05448 85.8333 6 85.8333C8.94552 85.8333 11.3333 83.4455 11.3333 80.5C11.3333 77.5545 8.94552 75.1667 6 75.1667C3.05448 75.1667 0.666667 77.5545 0.666667 80.5ZM5 5.5V10.1875H7V5.5H5ZM5 19.5625V28.9375H7V19.5625H5ZM5 38.3125V47.6875H7V38.3125H5ZM5 57.0625V66.4375H7V57.0625H5ZM5 75.8125V80.5H7V75.8125H5Z" fill="#85868A"/>
</svg>
