<svg width="40" height="42" viewBox="0 0 40 42" fill="none" xmlns="http://www.w3.org/2000/svg">
<g id="Flight">
<g id="Group 6">
<path id="Vector 62" d="M9.12167 24.0543L39.5455 15.7273C40.0094 17.2036 38.086 18.4478 36.8558 18.8872C33.6746 19.7484 25.8148 21.8504 19.8251 23.3689C13.8354 24.8874 10.1938 24.4586 9.12167 24.0543Z" fill="#FF4F1A"/>
<path id="Vector 63" d="M9.01622 20.7853L5.06174 21.8398C4.74538 22.7362 4.00721 24.9296 3.5854 26.5325C4.89301 26.7434 6.09869 25.8822 6.53808 25.4252L9.01622 20.7853Z" fill="#FF4F1A"/>
<path id="Vector 65" d="M25.0978 13.9835L20.3524 11.6636C16.9252 9.60723 12.7071 10.5563 11.3362 10.6618C10.2395 10.7461 10.4222 11.3648 10.6507 11.6636L17.7688 15.8289L25.0978 13.9835Z" fill="#EDEDEE"/>
<path id="Vector 64" d="M20.7215 15.1437L12.9707 10.5565C10.0602 10.3034 10.1762 11.154 10.598 11.611L18.0324 15.8818L20.7215 15.1437Z" fill="#C7C7C9"/>
<path id="Vector" d="M28.5798 18.1152L24.1276 25.4706C23.0362 27.2749 21.4259 28.708 19.5077 29.5843L16.1185 31.1334C15.8422 31.2599 15.5648 30.9583 15.7156 30.6936L21.9089 19.7846" fill="white"/>
<path id="Vector 66" d="M24.5705 19.0981L21.8815 19.7308L15.8179 30.5924V31.067L17.8743 30.3288L24.5705 19.0981Z" fill="#EDEDEE"/>
<path id="Vector_2" d="M8.90022 24.489C8.69142 24.489 8.4995 24.3498 8.44255 24.1378C8.37401 23.8847 8.52375 23.6242 8.77684 23.5557L20.9091 20.2729C21.1622 20.2043 21.4226 20.3541 21.4912 20.6072C21.5597 20.8602 21.41 21.1207 21.1569 21.1893L9.02465 24.4721C8.98352 24.4837 8.94134 24.489 8.90127 24.489H8.90022Z" fill="#424449"/>
<path id="Vector_3" d="M15.0175 19.5442C15.2942 19.5442 15.5184 19.32 15.5184 19.0433C15.5184 18.7667 15.2942 18.5424 15.0175 18.5424C14.7409 18.5424 14.5166 18.7667 14.5166 19.0433C14.5166 19.32 14.7409 19.5442 15.0175 19.5442Z" fill="#424449"/>
<path id="Vector_4" d="M17.8415 18.8238C18.1182 18.8238 18.3424 18.5996 18.3424 18.3229C18.3424 18.0463 18.1182 17.822 17.8415 17.822C17.5649 17.822 17.3406 18.0463 17.3406 18.3229C17.3406 18.5996 17.5649 18.8238 17.8415 18.8238Z" fill="#424449"/>
<path id="Vector_5" d="M20.6645 18.1026C20.9412 18.1026 21.1654 17.8783 21.1654 17.6017C21.1654 17.325 20.9412 17.1008 20.6645 17.1008C20.3879 17.1008 20.1636 17.325 20.1636 17.6017C20.1636 17.8783 20.3879 18.1026 20.6645 18.1026Z" fill="#424449"/>
<path id="Vector_6" d="M23.4875 17.3824C23.7642 17.3824 23.9884 17.1582 23.9884 16.8815C23.9884 16.6049 23.7642 16.3806 23.4875 16.3806C23.2109 16.3806 22.9866 16.6049 22.9866 16.8815C22.9866 17.1582 23.2109 17.3824 23.4875 17.3824Z" fill="#424449"/>
<path id="Vector_7" d="M26.3115 16.661C26.5881 16.661 26.8124 16.4367 26.8124 16.1601C26.8124 15.8834 26.5881 15.6592 26.3115 15.6592C26.0349 15.6592 25.8106 15.8834 25.8106 16.1601C25.8106 16.4367 26.0349 16.661 26.3115 16.661Z" fill="#424449"/>
<path id="Vector_8" d="M36.3863 12.8939L34.7375 12.2339C33.3529 11.6793 31.7991 11.5897 30.3602 11.9819L17.9563 15.359L10.9456 11.345C10.9289 11.3356 10.8914 11.3145 10.9049 11.2523C10.9175 11.1911 10.9613 11.1869 10.9801 11.1848L15.0545 10.7957C16.2658 10.6797 17.4833 10.9033 18.5755 11.441L21.6893 12.9709C21.9222 13.0858 22.2041 12.9878 22.3179 12.7516C22.4317 12.5154 22.3346 12.2318 22.1007 12.1168L18.9869 10.587C17.7381 9.97542 16.3472 9.72026 14.9658 9.85206L10.8914 10.2411C10.4371 10.2843 10.0811 10.6038 9.98604 11.0551C9.88997 11.5064 10.0852 11.9439 10.482 12.1717L16.6647 15.7112L8.65574 17.8916C8.62233 17.9001 8.58683 17.8916 8.56072 17.8695L4.75883 14.4923C4.31087 14.0938 3.70211 13.9599 3.1299 14.1339L0.578943 14.9078C0.319985 14.9858 0.117412 15.1882 0.0370095 15.4497C-0.043393 15.7101 0.00881642 15.9927 0.177975 16.2068L4.62726 21.8223L3.05367 26.0114C2.93359 26.3298 3.00355 26.6819 3.2364 26.9287C3.40452 27.1079 3.63111 27.2038 3.86605 27.2038C3.95481 27.2038 4.04565 27.1901 4.13441 27.1617L5.17859 26.8253C6.01499 26.5554 6.70624 25.9766 7.12392 25.1963L7.7379 24.0492C7.94674 24.1694 8.22763 24.3043 8.59309 24.434C8.63799 24.4583 8.68602 24.4751 8.73719 24.4836C9.52451 24.7429 10.6689 24.9665 12.2822 24.9665C13.8955 24.9665 16.0298 24.7366 18.7343 24.0871L15.1527 30.4587C14.9846 30.7571 15.0263 31.1272 15.2561 31.3802C15.4075 31.5479 15.6173 31.6364 15.8314 31.6364C15.941 31.6364 16.0517 31.6132 16.1562 31.5647L19.5122 30.0159C21.5045 29.0964 23.1585 27.6098 24.2935 25.7172L26.4957 22.0437C27.4877 21.778 34.5245 19.8918 36.4802 19.3013C38.7545 18.616 40.0378 17.3434 39.9992 15.8114C39.9616 14.2973 36.9982 13.1227 36.3873 12.8971L36.3863 12.8939ZM10.8632 23.9458L20.2462 21.3932L19.3743 22.9452C15.3532 23.9975 12.6372 24.1272 10.8632 23.9458ZM36.2098 18.3893C34.5903 18.8775 29.4372 20.2682 27.1953 20.8702L28.2134 19.1727L37.4054 16.7498C37.656 16.6833 37.8064 16.424 37.7416 16.1709C37.6758 15.9179 37.419 15.766 37.1684 15.8314L28.7626 18.0466C28.7438 17.9106 28.6687 17.7841 28.5434 17.7071C28.3209 17.5711 28.0328 17.6428 27.8981 17.8674L27.5065 18.5211L23.4895 25.2206C22.4526 26.9497 20.9427 28.3078 19.1216 29.1481L16.2136 30.4903L20.0917 23.5926L21.6183 20.8766L22.1018 20.0162C22.2302 19.7885 22.1508 19.4985 21.9253 19.3699C21.6997 19.2402 21.4126 19.3203 21.2852 19.5481L20.8999 20.2344L8.8437 23.5135C8.55132 23.406 8.33518 23.2985 8.18481 23.2109L9.39712 20.9472C9.48692 20.7806 9.46917 20.5761 9.35222 20.4274C9.23631 20.2787 9.04314 20.2144 8.86145 20.2629L6.60078 20.8766C6.35017 20.944 6.2019 21.2045 6.26873 21.4575C6.33556 21.7106 6.59347 21.8603 6.84408 21.7928L8.04907 21.466L6.29483 24.7429C5.99306 25.306 5.49394 25.7246 4.88935 25.9196L3.98091 26.2127L5.5994 21.9046C5.65892 21.7475 5.63073 21.5703 5.52735 21.4396L1.03003 15.7608L3.40034 15.0417C3.6593 14.9636 3.93497 15.0237 4.13858 15.204L7.94047 18.5812C8.20361 18.8142 8.56177 18.8996 8.90113 18.8068L30.6056 12.8971C31.8493 12.5586 33.1942 12.6356 34.3908 13.1153L34.4764 13.1491L32.6575 13.7026C32.4089 13.7785 32.268 14.0432 32.3432 14.2941C32.4048 14.4997 32.5906 14.6315 32.7932 14.6315C32.8381 14.6315 32.8841 14.6252 32.929 14.6115L35.8819 13.7121L36.0459 13.7775C36.0459 13.7775 36.0542 13.7806 36.0573 13.7817C37.3062 14.2435 39.0437 15.2125 39.0583 15.8303C39.0844 16.9016 38.0465 17.8336 36.2098 18.3872V18.3893Z" fill="#424449"/>
</g>
</g>
</svg>
