<svg width="40" height="42" viewBox="0 0 40 42" fill="none" xmlns="http://www.w3.org/2000/svg">
<g id="Hotel">
<g id="Group 7">
<g id="Layer_1" clip-path="url(#clip0_141_5587)">
<path id="Rectangle 24" d="M4 25C4 23.8954 4.89543 23 6 23H34C35.1046 23 36 23.8954 36 25V27H4V25Z" fill="#FF4F1A"/>
<path id="Vector" d="M37.4607 33.2748C37.9065 33.1228 38.2692 32.8734 38.2692 32.2585V28.0083C38.2692 27.5624 37.8867 27.178 37.5731 27.0392C36.9828 26.7785 36.9865 26.3752 37.0187 25.8888C37.0253 25.783 37.0187 25.6763 37.0111 25.5705C36.9223 24.2151 36.2555 23.2375 35.0456 22.6415C34.8076 22.5244 34.7282 22.4045 34.7292 22.1428C34.7396 19.6408 34.7405 17.1379 34.7292 14.6359C34.7273 14.2855 34.698 13.9237 34.6045 13.5884C34.2182 12.2094 33.0253 11.3717 31.4772 11.3707C26.4723 11.3679 21.4673 11.3707 16.4623 11.3707H16.0373C16.1573 10.7218 16.1167 10.4158 15.737 10.2581C14.7235 9.83777 14.0642 9.12089 13.609 8.13482C13.3662 7.60872 12.6503 7.64178 12.3197 8.12632C12.2536 8.2236 12.1856 8.32372 12.145 8.43328C11.8427 9.24084 11.2704 9.75276 10.4864 10.1003C9.82243 10.395 9.74971 10.6397 9.91877 11.3745C9.45219 11.3745 8.99315 11.3594 8.53601 11.3773C6.817 11.4463 5.55514 12.7478 5.53436 14.4649C5.52775 15.0552 5.53058 15.6456 5.53436 16.2359C5.53625 16.6449 5.74215 16.8904 6.06801 16.8848C6.39292 16.8791 6.59221 16.6345 6.59504 16.2208C6.59977 15.6541 6.59315 15.0874 6.59693 14.5206C6.60543 13.2994 7.44038 12.455 8.66352 12.4352C9.25384 12.4257 9.84416 12.4314 10.4345 12.4342C10.8236 12.4361 11.2883 12.3133 11.5802 12.4843C11.8711 12.6543 11.9901 13.1199 12.1837 13.4562C12.213 13.5072 12.2385 13.561 12.2687 13.6111C12.6305 14.2127 13.3285 14.208 13.6855 13.596C13.8517 13.3107 14.0198 13.0245 14.1587 12.7261C14.2616 12.5051 14.3958 12.4267 14.646 12.4267C20.2527 12.4342 25.8602 12.4314 31.4668 12.4333C32.8534 12.4333 33.6713 13.2503 33.6723 14.6293C33.6741 17.0604 33.6723 19.4925 33.6723 21.9237V22.294H32.3783V21.9011C32.3783 20.8035 32.383 19.7051 32.3764 18.6075C32.3688 17.2767 31.4612 16.3436 30.136 16.336C27.8229 16.3228 25.5089 16.3218 23.1958 16.336C21.8848 16.3445 20.9865 17.2767 20.9818 18.5896C20.9771 19.6994 20.9809 20.8092 20.9809 21.9181C20.9809 22.0418 20.9809 22.1655 20.9809 22.2921H19.2864C19.2864 22.141 19.2864 22.0134 19.2864 21.885C19.2864 20.7875 19.2902 19.689 19.2855 18.5915C19.2798 17.2645 18.3731 16.3407 17.0385 16.3341C14.7367 16.3228 12.4349 16.3218 10.1332 16.3341C8.80614 16.3417 7.89847 17.2739 7.89091 18.6028C7.8843 19.7003 7.88997 20.7988 7.88997 21.8963C7.88997 22.0229 7.88997 22.1495 7.88997 22.293H6.59599C6.59599 22.1438 6.59599 22.0163 6.59599 21.8888C6.59599 20.9329 6.59693 19.9761 6.59599 19.0203C6.59599 18.5528 6.39859 18.2968 6.05195 18.3034C5.71854 18.3091 5.5353 18.5547 5.5353 19.0042C5.53341 20.0545 5.52869 21.1058 5.54003 22.1561C5.54286 22.3969 5.48052 22.5225 5.24345 22.6321C4.21582 23.1081 3.55183 23.9081 3.33554 25.0236C3.24487 25.493 3.27981 25.9861 3.24581 26.4668C3.23825 26.5717 3.20142 26.7445 3.13908 26.7653C2.54782 26.9561 2.00095 27.3924 2.00095 27.9346V32.2557C2.00095 32.8744 2.53932 33.2408 3.12491 33.4382C3.18064 33.4571 3.24392 33.5563 3.24392 33.6186C3.25242 34.3714 3.24959 35.1251 3.24959 35.8921C2.80945 36.0101 2.2673 35.7476 2.00095 36.2935V36.6477C2.1804 36.9197 2.43259 36.9981 2.75467 36.9981C14.3419 36.9924 25.9292 36.9924 37.5164 36.9981C37.8385 36.9981 38.0897 36.9188 38.2701 36.6477V36.2935C38.1322 36.1065 37.7157 35.9755 37.0205 35.9006V34.6104C37.0205 34.4338 37.0319 34.2552 37.0187 34.0796C36.9913 33.7112 37.013 33.426 37.4616 33.273L37.4607 33.2748ZM12.979 12.6647C12.6494 11.7863 12.0609 11.2366 11.2146 10.907C12.0619 10.5868 12.6409 10.0418 12.9677 9.17283C13.3039 10.0191 13.8697 10.5915 14.7292 10.9041C13.8971 11.2545 13.2765 11.7731 12.979 12.6656V12.6647ZM8.95443 18.5905C8.95915 17.8859 9.3974 17.4052 10.085 17.4014C12.4217 17.3891 14.7594 17.3891 17.0961 17.4014C17.7743 17.4052 18.2201 17.8774 18.2229 18.5528C18.2286 19.791 18.2248 21.0293 18.2248 22.293H8.95254C8.95254 22.0815 8.95254 21.8944 8.95254 21.7084C8.95254 20.6694 8.94782 19.6314 8.95443 18.5924V18.5905ZM5.11688 23.9554C5.58442 23.5521 6.12846 23.3726 6.74522 23.3773C7.7719 23.3849 8.79858 23.3792 9.82621 23.3792C15.0314 23.3792 20.2366 23.3792 25.4418 23.3792C25.5712 23.3792 25.7025 23.3839 25.8309 23.3669C26.1492 23.3244 26.3325 23.1157 26.323 22.8238C26.3136 22.532 26.1181 22.327 25.7941 22.3232C24.944 22.3119 24.0949 22.3176 23.2449 22.3176C22.8576 22.3176 22.4713 22.3176 22.0453 22.3176C22.0453 21.9181 22.0453 21.5554 22.0453 21.1936C22.0453 20.3199 22.0416 19.4463 22.0463 18.5735C22.0501 17.8765 22.4921 17.4042 23.1873 17.4005C25.5126 17.3901 27.838 17.391 30.1625 17.4005C30.8151 17.4033 31.2959 17.8378 31.3072 18.464C31.3299 19.7258 31.3138 20.9887 31.3138 22.294C31.1759 22.3025 31.0522 22.3166 30.9275 22.3166C30.0897 22.3185 29.2519 22.3147 28.4132 22.3185C27.9835 22.3204 27.7596 22.5046 27.7587 22.8399C27.7577 23.1724 27.9891 23.3754 28.4085 23.3773C30.0727 23.382 31.737 23.3783 33.4012 23.3802C34.9993 23.382 35.9504 24.3341 35.9561 25.9341C35.9561 26.1797 35.9561 26.4262 35.9561 26.7001H4.33955C4.2536 25.6725 4.25927 24.6949 5.11688 23.9554ZM3.07391 28.2576C3.08808 27.9818 3.26942 27.8099 3.55939 27.7872C3.67651 27.7778 3.79552 27.7825 3.91358 27.7825C14.7254 27.7825 25.5372 27.7825 36.349 27.7825C37.0971 27.7825 37.2076 27.8921 37.2076 28.6392C37.2076 28.9905 37.2076 29.3428 37.2076 29.7197H3.0673C3.0673 29.2201 3.04935 28.7374 3.07391 28.2576ZM6.51476 35.9091H4.34239V33.5214H6.51476V35.9091ZM35.9277 35.9091H33.744V33.5355H35.9277V35.9091ZM36.7457 32.4276C36.5955 32.4503 36.4397 32.4465 36.2867 32.4465C29.0375 32.4465 21.7884 32.4465 14.5393 32.4475C14.3976 32.4475 14.255 32.4418 14.1152 32.4588C13.8442 32.4918 13.6883 32.6571 13.6666 32.9254C13.6439 33.2078 13.7752 33.4109 14.0567 33.4751C14.2154 33.511 14.3844 33.5091 14.5488 33.5091C20.4161 33.511 26.2843 33.51 32.1516 33.51H32.6494V35.9081H7.62834V33.51H8.01275C9.1575 33.51 10.3032 33.511 11.4479 33.5081C11.5887 33.5081 11.7351 33.5044 11.8673 33.4647C12.128 33.3872 12.2432 33.1879 12.2205 32.9216C12.1988 32.6704 12.0562 32.506 11.8031 32.4645C11.6765 32.4437 11.5443 32.4484 11.4149 32.4484C8.90059 32.4484 6.38536 32.4484 3.87108 32.4484C3.2052 32.4484 3.06258 32.3029 3.06258 31.6361C3.06258 31.3773 3.06258 31.1185 3.06258 30.8314H37.2019C37.2019 31.212 37.2179 31.5861 37.1962 31.9591C37.1811 32.2245 37.0092 32.3889 36.7457 32.4295V32.4276Z" fill="#424449"/>
<path id="Vector_2" d="M25.2425 8.36152C25.9414 8.68643 26.4496 9.14641 26.7273 9.86424C26.8727 10.1542 27.0947 10.3714 27.396 10.3714C27.7426 10.3714 28.0109 10.1835 28.1884 9.77829C28.4671 9.14546 28.8808 8.68171 29.5353 8.42764C29.8763 8.29541 30.103 8.03283 30.0954 7.64464C30.0878 7.25739 29.8489 7.01748 29.5098 6.8777C28.9082 6.62835 28.4671 6.22976 28.2281 5.60922C28.0921 5.25881 27.8475 5.0019 27.4413 5.00001C27.0342 4.99812 26.7896 5.25031 26.6489 5.59977C26.4033 6.20993 25.9915 6.64251 25.3729 6.87392C25.3294 6.88998 25.2897 6.91831 25.2491 6.94192C24.6182 7.30556 24.5889 8.05644 25.2425 8.36152ZM27.4309 6.40544C27.6935 7.00332 28.0864 7.41607 28.7023 7.65692C28.1053 7.89966 27.686 8.29824 27.4376 8.90839C27.1854 8.31524 26.7896 7.90438 26.1899 7.66164C26.7792 7.40379 27.1986 7.01654 27.4309 6.40544Z" fill="#424449"/>
<path id="Vector_3" d="M28.7019 7.65693C28.086 7.41608 27.6931 7.00333 27.4305 6.40546C27.1982 7.01655 26.7788 7.4038 26.1895 7.66165C26.7892 7.90439 27.185 8.31526 27.4372 8.90841C27.6856 8.29825 28.1049 7.89967 28.7019 7.65693Z" fill="#FF4F1A"/>
<path id="Vector_4" d="M17.0508 7.50484C17.1358 7.93554 16.8996 8.56081 17.5778 8.5797C18.307 8.59953 18.0756 7.93649 18.1672 7.51051C18.5752 7.41323 19.2279 7.67013 19.2222 6.9542C19.2165 6.25998 18.5828 6.47344 18.1568 6.40166C18.0878 5.97096 18.3013 5.33908 17.6005 5.33814C16.8826 5.33625 17.1518 5.99268 17.046 6.39505C16.6276 6.48194 15.9825 6.2562 15.9769 6.95042C15.9702 7.67391 16.6456 7.41606 17.0508 7.50673V7.50484Z" fill="#424449"/>
<path id="Vector_5" d="M21.5863 9.94639C21.6496 10.446 21.795 10.6397 22.1143 10.6519C22.4449 10.6642 22.5979 10.4781 22.7112 9.92466C23.243 9.83021 23.4215 9.68665 23.4187 9.35701C23.4149 9.02927 23.2099 8.8687 22.7055 8.81108C22.6196 8.27271 22.4638 8.08003 22.1313 8.08192C21.8092 8.08476 21.6808 8.24721 21.5684 8.8092C21.2274 8.83186 20.8996 8.89703 20.8496 9.32395C20.8128 9.63375 20.9932 9.77921 21.5872 9.94544L21.5863 9.94639Z" fill="#424449"/>
</g>
</g>
</g>
<defs>
<clipPath id="clip0_141_5587">
<rect width="36.2692" height="32" fill="white" transform="translate(2 5)"/>
</clipPath>
</defs>
</svg>
